# AST/ASF file generated using VICON BodyLanguage
# -----------------------------------------------
:version 1.10
:name VICON
:units
  mass 1.0
  length 0.45
  angle deg
:documentation
   .ast/.asf automatically generated from VICON data using
   VICON BodyBuilder and BodyLanguage model FoxedUp or BRILLIANT.MOD
:root
   order TX TY TZ RX RY RZ
   axis XYZ
   position 0 0 0  
   orientation 0 0 0 
:bonedata
  begin
     id 1 
     name lhipjoint
     direction 0.561001 -0.76473 0.316963 
     length 2.4722 
     axis 0 0 0  XYZ
  end
  begin
     id 2 
     name lfemur
     direction 0.34202 -0.939693 0  
     length 7.59403  
     axis 0 0 20  XYZ
    dof rx ry rz
    limits (-160.0 20.0)
           (-70.0 70.0)
           (-60.0 70.0)
  end
  begin
     id 3 
     name ltibia
     direction 0.34202 -0.939693 0   
     length 7.89655   
     axis 0 0 20   XYZ
    dof rx
    limits (-10.0 170.0)
  end
  begin
     id 4 
     name lfoot
     direction 0.061296 -0.168409 0.98381   
     length 2.73287   
     axis -90 7.62852e-016 20   XYZ
    dof rx rz
    limits (-45.0 90.0)
           (-70.0 20.0)
  end
  begin
     id 5 
     name ltoes
     direction 1.53547e-011 -4.21984e-011 1   
     length 1.37057   
     axis -90 7.62852e-016 20   XYZ
    dof rx
    limits (-90.0 20.0)
  end
  begin
     id 6 
     name rhipjoint
     direction -0.559611 -0.765599 0.317323   
     length 2.46939  
     axis 0 0 0  XYZ 
  end
  begin
     id 7 
     name rfemur
     direction -0.34202 -0.939693 0   
     length 7.53712   
     axis 0 0 -20   XYZ
    dof rx ry rz
    limits (-160.0 20.0)
           (-70.0 70.0)
           (-70.0 60.0)
  end
  begin
     id 8 
     name rtibia
     direction -0.34202 -0.939693 0   
     length 8.12549   
     axis 0 0 -20   XYZ
    dof rx
    limits (-10.0 170.0)
 end
 begin
     id 9 
     name rfoot
     direction -0.066984 -0.184037 0.980634   
     length 2.67541  
     axis -90 -7.62852e-016 -20   XYZ
    dof rx rz
    limits (-45.0 90.0)
           (-20.0 70.0)
  end
  begin
     id 10 
     name rtoes
     direction -1.53549e-011 -4.21786e-011 1   
     length 1.34085   
     axis -90 -7.62852e-016 -20   XYZ
    dof rx
    limits (-90.0 20.0)
  end
  begin
     id 11 
     name lowerback
     direction -0.0522728 0.992594 -0.109658   
     length 2.05633   
     axis 0 0 0   XYZ
    dof rx ry rz
    limits (-20.0 45.0)
           (-30.0 30.0)
           (-30.0 30.0)
  end
  begin
     id 12 
     name upperback
     direction 0.00589338 0.999977 0.00335704   
     length 2.05845   
     axis 0 0 0   XYZ
    dof rx ry rz
    limits (-20.0 45.0)
           (-30.0 30.0)
           (-30.0 30.0)
  end
  begin
     id 13 
     name thorax
     direction 0.0292928 0.998059 0.0549487   
     length 2.09281   
     axis 0 0 0   XYZ
    dof rx ry rz
    limits (-20.0 45.0)
           (-30.0 30.0)
           (-30.0 30.0)
  end
  begin
     id 14 
     name lowerneck
     direction 0.0356368 0.980775 0.191858   
     length 1.84767   
     axis 0 0 0   XYZ
    dof rx ry rz
    limits (-20.0 45.0)
           (-30.0 30.0)
           (-30.0 30.0)
  end
  begin
     id 15 
     name upperneck
     direction -0.0227605 0.98931 -0.14404   
     length 1.89582   
     axis 0 0 0   XYZ
    dof rx ry rz
    limits (-20.0 45.0)
           (-30.0 30.0)
           (-30.0 30.0)
  end
  begin
     id 16
     name head
     direction -0.00932985 0.997511 -0.0698904  
     length 1.90213  
     axis 0 0 0   XYZ
    dof rx ry rz
    limits (-20.0 45.0)
           (-30.0 30.0)
           (-30.0 30.0)
  end
  begin
     id 17 
     name lclavicle
     direction 0.873442 0.479511 0.0846686  
     length 3.41193  
     axis 0 0 0   XYZ
    dof ry rz
    limits (-20.0 10.0)
           (0.0 20.0)
  end
  begin
     id 18 
     name lhumerus
     direction 1 -4.4897e-011 -5.62117e-018   
     length 5.59864   
     axis 180 -30 -90   XYZ
    dof rx ry rz
    limits (-60.0 90.0)
           (-90.0 90.0)
           (-90.0 90.0)
  end
  begin
     id 19
     name lradius
     direction 1 -4.48966e-011 -6.26295e-027   
     length 3.59542   
     axis 180 -30 -90   XYZ
    dof rx
    limits (-10.0 170.0)
  end
  begin
     id 20
     name lwrist
     direction 1 -4.48947e-011 -1.74096e-026   
     length 1.79771   
     axis 1.04567e-014 90 90   XYZ
    dof ry
    limits (-180.0 0.0)
 end
  begin
     id 21 
     name lhand
     direction 1 -4.49085e-011 -3.48469e-026   
     length 0.572014   
     axis 2.22196e-014 90 90   XYZ
    dof rx rz
    limits (-90.0 90.0)
           (-45.0 45.0)
  end
  begin
     id 22 
     name lfingers
     direction 1 -4.48884e-011 -6.96135e-026   
     length 0.461173   
     axis 4.44383e-014 90 90   XYZ
    dof rx
    limits (0.0 90.0)
  end
  begin
     id 23
     name lthumb
     direction 0.707107 -6.34976e-011 0.707107   
     length 0.662154   
     axis -90 45 -5.4397e-014   XYZ
    dof rx rz
    limits (-45.0 45.0)
           (-45.0 45.0)
  end
  begin
     id 24 
     name rclavicle
     direction -0.890242 0.443271 0.104786   
     length 3.46753  
     axis 0 0 0   XYZ 
    dof ry rz
    limits (-10.0 20.0)
           (-20.0 0.0)
  end
  begin
     id 25 
     name rhumerus
     direction -1 -4.48963e-011 -5.41723e-018  
     length 5.8094   
     axis 180 30 90   XYZ
    dof rx ry rz
    limits (-90.0 60.0)
           (-90.0 90.0)
           (-90.0 90.0)
  end
  begin
     id 26 
     name rradius
     direction -1 -4.48958e-011 -6.51059e-027   
     length 3.66953   
     axis 180 30 90   XYZ
    dof rx
    limits (-10.0 170.0)
  end
  begin
     id 27 
     name rwrist
     direction -1 -4.48975e-011 -1.74124e-026   
     length 1.83476   
     axis 1.04567e-014 -90 -90   XYZ
    dof ry
    limits (-180.0 0.0)
  end
  begin
     id 28
     name rhand
     direction -1 -4.49013e-011 -3.48326e-026   
     length 0.57843   
     axis 2.22196e-014 -90 -90   XYZ
    dof rx rz
    limits (-90.0 90.0)
           (-45.0 45.0)
  end
  begin
     id 29
     name rfingers
     direction -1 -4.49023e-011 -6.9669e-026   
     length 0.466345   
     axis 4.44383e-014 -90 -90   XYZ
    dof rx
    limits (0.0 90.0)
  end
  begin
     id 30
     name rthumb
     direction -0.707107 -6.34926e-011 0.707107   
     length 0.669581   
     axis -90 -45 5.4397e-014   XYZ
    dof rx rz
    limits (-45.0 45.0)
           (-45.0 45.0)
  end
:hierarchy
  begin
    root lhipjoint rhipjoint lowerback
    lhipjoint lfemur
    lfemur ltibia
    ltibia lfoot
    lfoot ltoes
    rhipjoint rfemur
    rfemur rtibia
    rtibia rfoot
    rfoot rtoes
    lowerback upperback
    upperback thorax
    thorax lowerneck lclavicle rclavicle
    lowerneck upperneck
    upperneck head
    lclavicle lhumerus
    lhumerus lradius
    lradius lwrist
    lwrist lhand lthumb
    lhand lfingers
    rclavicle rhumerus
    rhumerus rradius
    rradius rwrist
    rwrist rhand rthumb
    rhand rfingers
  end

#!OML:ASF H:\SkateBoarding\Project 1\Capture day 1\Session 1\Skater.ASF
:FULLY-SPECIFIED
:DEGREES
85
root 18.6468 18.3595 7.54807 5.94374 41.6893 -1.46925
lowerback 15.0638 -1.89046 -2.9486
upperback -0.892925 -3.03463 0.0270598
thorax -9.2825 -1.30438 2.38478
lowerneck -19.8715 -7.44083 -3.38169
upperneck 36.0969 -10.695 2.59215
head 16.7276 -4.37859 -0.384299
rclavicle 2.88238e-015 0
rhumerus -21.2125 22.3773 -65.2211
rradius 51.6787
rwrist -0.895712
rhand -44.0697 10.7867
rfingers 7.12502
rthumb -16.8883 -18.4989
lclavicle 2.88238e-015 0
lhumerus -4.82965 -25.7345 83.0286
lradius 72.8843
lwrist 24.954
lhand -27.459 3.89216
lfingers 7.12502
lthumb -0.863382 33.8702
rfemur -43.0132 -10.3678 25.2317
rtibia 59.1492
rfoot -24.95 11.2901
rtoes -19.9632
lfemur -20.0375 6.58186 4.30797
ltibia 77.2798
lfoot -23.3774 -6.02445
ltoes -23.4291
86
root 18.5467 18.4 7.94492 5.68634 42.5424 -1.70094
lowerback 15.1034 -1.94088 -2.93624
upperback -0.911676 -3.09548 0.088473
thorax -9.31925 -1.3313 2.45989
lowerneck -19.7712 -7.56264 -3.41833
upperneck 36.1572 -10.9445 2.78449
head 16.7662 -4.4543 -0.342561
rclavicle -3.97569e-014 -1.63003e-014
rhumerus -21.2129 21.8242 -65.329
rradius 51.1735
rwrist -0.914934
rhand -43.9242 10.4687
rfingers 7.12502
rthumb -16.7482 -18.8289
lclavicle -3.97569e-014 -1.63003e-014
lhumerus -5.28209 -25.9586 83.7758
lradius 72.7347
lwrist 24.7951
lhand -27.3954 3.94802
lfingers 7.12502
lthumb -0.802009 33.9263
rfemur -42.4987 -10.9001 25.57
rtibia 58.458
rfoot -25.1625 10.9348
rtoes -19.7454
lfemur -21.1977 7.62561 3.37412
ltibia 77.7951
lfoot -24.1845 -7.04408
ltoes -23.3436
87
root 18.4454 18.4364 8.34378 5.3919 43.4037 -1.95603
lowerback 15.1487 -1.98605 -2.95733
upperback -0.915007 -3.15445 0.156163
thorax -9.34021 -1.35594 2.5601
lowerneck -19.6856 -7.69047 -3.4601
upperneck 36.1944 -11.214 3.01134
head 16.8021 -4.53424 -0.289546
rclavicle 1.14301e-013 -1.27222e-014
rhumerus -21.2914 21.2938 -65.4589
rradius 50.7706
rwrist -0.993948
rhand -43.7661 10.1272
rfingers 7.12502
rthumb -16.596 -19.1832
lclavicle 1.14301e-013 -1.27222e-014
lhumerus -5.73179 -26.1905 84.4826
lradius 72.5919
lwrist 24.6672
lhand -27.3391 3.97672
lfingers 7.12502
lthumb -0.747604 33.9552
rfemur -41.9977 -11.3377 25.8924
rtibia 57.8312
rfoot -25.4608 10.514
rtoes -19.5229
lfemur -22.2394 8.57615 2.3988
ltibia 77.9619
lfoot -24.9455 -7.97729
ltoes -23.1629
88
root 18.3427 18.469 8.74543 5.06942 44.2705 -2.23411
lowerback 15.1854 -2.02332 -3.0147
upperback -0.903711 -3.20842 0.227403
thorax -9.33814 -1.37699 2.68267
lowerneck -19.6112 -7.82905 -3.50567
upperneck 36.2094 -11.511 3.27184
head 16.8356 -4.62143 -0.227343
rclavicle -6.48038e-014 5.1684e-014
rhumerus -21.453 20.7878 -65.6144
rradius 50.4733
rwrist -1.10543
rhand -43.6081 9.7859
rfingers 7.12502
rthumb -16.4439 -19.5372
lclavicle -6.48038e-014 5.1684e-014
lhumerus -6.16734 -26.439 85.1425
lradius 72.4477
lwrist 24.5846
lhand -27.2924 3.97238
lfingers 7.12502
lthumb -0.702527 33.951
rfemur -41.5206 -11.6674 26.2014
rtibia 57.2734
rfoot -25.8473 10.014
rtoes -19.326
lfemur -23.1735 9.43431 1.3977
ltibia 77.792
lfoot -25.6777 -8.80714
ltoes -22.9259
89
root 18.2393 18.4981 9.14984 4.76111 45.1513 -2.49489
lowerback 15.1996 -2.06222 -3.12484
upperback -0.886502 -3.27372 0.293847
thorax -9.31311 -1.40174 2.83102
lowerneck -19.5359 -7.97459 -3.56425
upperneck 36.206 -11.8276 3.56851
head 16.8667 -4.71377 -0.151323
rclavicle -1.23445e-013 3.33958e-014
rhumerus -21.6965 20.3431 -65.8007
rradius 50.2825
rwrist -1.24207
rhand -43.4547 9.44746
rfingers 7.12502
rthumb -16.2962 -19.8878
lclavicle -1.23445e-013 3.33958e-014
lhumerus -6.59153 -26.6843 85.76
lradius 72.2917
lwrist 24.5453
lhand -27.2581 3.95823
lfingers 7.12502
lthumb -0.669348 33.9369
rfemur -41.0866 -11.9081 26.4703
rtibia 56.7898
rfoot -26.3114 9.44327
rtoes -19.1374
lfemur -24.0194 10.1816 0.344859
ltibia 77.2971
lfoot -26.4116 -9.47622
ltoes -22.6496
90
root 18.1354 18.524 9.55723 4.47665 46.0491 -2.73121
lowerback 15.1891 -2.10071 -3.29877
upperback -0.867038 -3.34916 0.360538
thorax -9.26688 -1.42897 3.01641
lowerneck -19.4501 -8.1266 -3.64932
upperneck 36.1834 -12.1576 3.90141
head 16.8942 -4.81092 -0.0576415
rclavicle -4.00551e-014 1.43125e-014
rhumerus -22.0262 19.9755 -66.0072
rradius 50.2004
rwrist -1.39598
rhand -43.3106 9.12793
rfingers 7.12502
rthumb -16.1575 -20.2186
lclavicle -4.00551e-014 1.43125e-014
lhumerus -7.00401 -26.917 86.3504
lradius 72.1191
lwrist 24.5223
lhand -27.2207 3.94061
lfingers 7.12502
lthumb -0.633258 33.9194
rfemur -40.7032 -12.064 26.6974
rtibia 56.3822
rfoot -26.8544 8.79365
rtoes -18.978
lfemur -24.7786 10.8161 -0.748897
ltibia 76.4902
lfoot -27.1751 -9.92941
ltoes -22.3739
91
root 18.0312 18.5467 9.96806 4.21642 46.9687 -2.94816
lowerback 15.1456 -2.14138 -3.52188
upperback -0.846514 -3.43573 0.420912
thorax -9.19682 -1.46029 3.22314
lowerneck -19.3442 -8.28619 -3.75656
upperneck 36.1422 -12.5032 4.26811
head 16.9161 -4.91394 0.051813
rclavicle -2.36554e-014 3.97569e-015
rhumerus -22.4516 19.6752 -66.2461
rradius 50.2255
rwrist -1.54735
rhand -43.1877 8.83448
rfingers 7.12502
rthumb -16.0391 -20.5216
lclavicle -2.36554e-014 3.97569e-015
lhumerus -7.40348 -27.1472 86.9016
lradius 71.932
lwrist 24.504
lhand -27.1725 3.93884
lfingers 7.12502
lthumb -0.586665 33.9178
rfemur -40.3742 -12.1453 26.8917
rtibia 56.0483
rfoot -27.4687 8.05203
rtoes -18.8845
lfemur -25.4482 11.3382 -1.85965
ltibia 75.3847
lfoot -28.0003 -10.1129
ltoes -22.1195
92
root 17.927 18.5668 10.3824 3.97234 47.9229 -3.15045
lowerback 15.0752 -2.18836 -3.78507
upperback -0.822634 -3.53708 0.475449
thorax -9.10379 -1.49805 3.44743
lowerneck -19.2313 -8.45 -3.87169
upperneck 36.0939 -12.8571 4.64797
head 16.9381 -5.02015 0.166535
rclavicle 3.43897e-014 3.18055e-015
rhumerus -22.9642 19.4432 -66.515
rradius 50.3476
rwrist -1.69737
rhand -43.0775 8.57348
rfingers 7.12502
rthumb -15.933 -20.7912
lclavicle 3.43897e-014 3.18055e-015
lhumerus -7.78373 -27.3764 87.4125
lradius 71.725
lwrist 24.4724
lhand -27.1329 3.9438
lfingers 7.12502
lthumb -0.548467 33.9228
rfemur -40.0922 -12.1752 27.058
rtibia 55.7808
rfoot -28.1473 7.23379
rtoes -18.804
lfemur -26.0203 11.7385 -2.9673
ltibia 74.0007
lfoot -28.9308 -9.94507
ltoes -21.9471
93
root 17.8229 18.5845 10.8005 3.73364 48.921 -3.3458
lowerback 14.9812 -2.23949 -4.07648
upperback -0.797188 -3.64864 0.517279
thorax -8.99281 -1.5408 3.67419
lowerneck -19.0865 -8.62208 -3.97984
upperneck 36.0383 -13.2275 5.03259
head 16.9524 -5.13289 0.279932
rclavicle -5.34731e-014 3.18055e-015
rhumerus -23.5795 19.2519 -66.8251
rradius 50.5597
rwrist -1.84208
rhand -42.9682 8.35649
rfingers 7.12502
rthumb -15.8278 -21.0165
lclavicle -5.34731e-014 3.18055e-015
lhumerus -8.14811 -27.6245 87.8873
lradius 71.4877
lwrist 24.3963
lhand -27.0916 3.9454
lfingers 7.12502
lthumb -0.508523 33.9245
rfemur -39.8409 -12.1535 27.1964
rtibia 55.5649
rfoot -28.8939 6.35528
rtoes -18.7021
lfemur -26.4861 12.0084 -4.05005
ltibia 72.3704
lfoot -30.0172 -9.35581
ltoes -21.9031
94
root 17.7196 18.6005 11.2217 3.47452 49.9667 -3.56259
lowerback 14.8745 -2.30847 -4.37274
upperback -0.771143 -3.78349 0.559451
thorax -8.87031 -1.59548 3.90752
lowerneck -18.9296 -8.78872 -4.08466
upperneck 35.9912 -13.5836 5.39804
head 16.9678 -5.24255 0.387728
rclavicle -3.56818e-014 1.74931e-014
rhumerus -24.2711 19.1356 -67.1661
rradius 50.8524
rwrist -1.9912
rhand -42.8641 8.16417
rfingers 7.12502
rthumb -15.7275 -21.2168
lclavicle -3.56818e-014 1.74931e-014
lhumerus -8.50773 -27.8476 88.3268
lradius 71.2256
lwrist 24.266
lhand -27.0416 3.93281
lfingers 7.12502
lthumb -0.460259 33.9121
rfemur -39.6113 -12.1097 27.3299
rtibia 55.3845
rfoot -29.6871 5.42402
rtoes -18.5644
lfemur -26.8521 12.1695 -5.0892
ltibia 70.5592
lfoot -31.3648 -8.17412
ltoes -22.1734
95
root 17.6172 18.6166 11.646 3.16077 51.069 -3.82833
lowerback 14.7623 -2.39182 -4.64946
upperback -0.738817 -3.93312 0.596934
thorax -8.73636 -1.65942 4.12638
lowerneck -18.7586 -8.95298 -4.1607
upperneck 35.9547 -13.935 5.73335
head 16.9814 -5.35111 0.479248
rclavicle -4.94974e-014 2.3059e-014
rhumerus -25.0381 19.0429 -67.5425
rradius 51.2108
rwrist -2.13923
rhand -42.7419 8.00731
rfingers 7.12502
rthumb -15.6098 -21.3828
lclavicle -4.94974e-014 2.3059e-014
lhumerus -8.85334 -28.0726 88.7333
lradius 70.9301
lwrist 24.082
lhand -26.9947 3.88726
lfingers 7.12502
lthumb -0.41498 33.8666
rfemur -39.3771 -12.0696 27.4764
rtibia 55.2218
rfoot -30.5174 4.44945
rtoes -18.3832
lfemur -27.1198 12.2169 -6.05187
ltibia 68.6505
lfoot -32.9781 -6.21844
ltoes -23.0581
96
root 17.516 18.6333 12.0726 2.76922 52.2262 -4.16719
lowerback 14.6512 -2.4987 -4.89195
upperback -0.700007 -4.10676 0.637857
thorax -8.59397 -1.73746 4.33338
lowerneck -18.5779 -9.11005 -4.20851
upperneck 35.9369 -14.2681 6.02115
head 16.9946 -5.45514 0.549889
rclavicle 2.45499e-014 9.54166e-015
rhumerus -25.8539 18.9857 -67.9501
rradius 51.6205
rwrist -2.28434
rhand -42.5995 7.86879
rfingers 7.12502
rthumb -15.4727 -21.532
lclavicle 2.45499e-014 9.54166e-015
lhumerus -9.19254 -28.2704 89.1041
lradius 70.6047
lwrist 23.8564
lhand -26.9875 3.79216
lfingers 7.12502
lthumb -0.408031 33.7715
rfemur -39.1338 -12.0591 27.6524
rtibia 55.0703
rfoot -31.3542 3.44938
rtoes -18.1652
lfemur -27.2849 12.1199 -6.91084
ltibia 66.7325
lfoot -34.7387 -3.61847
ltoes -24.3131
